<?xml version="1.0" encoding="UTF-8"?>
<svg id="Capa_1" data-name="Capa 1" xmlns="http://www.w3.org/2000/svg" viewBox="0 0 1080 1080">
  <defs>
    <style>
      .cls-1 {
        fill: #3bb9ff;
      }

      .cls-1, .cls-2, .cls-3, .cls-4 {
        stroke-width: 0px;
      }

      .cls-2 {
        fill: #3c3c3c;
      }

      .cls-3 {
        fill: #1d1d1b;
      }

      .cls-4 {
        fill: #fbfcf7;
      }
    </style>
  </defs>
  <rect class="cls-3" x="213.37" y="211.19" width="653.26" height="657.62" rx="125.24" ry="125.24"/>
  <g>
    <path class="cls-2" d="M568.45,613.3c2.07-4.21,6.55-6.91,11.48-6.91h84.8l-18.72-40.37c-1.82.58-3.89.9-6.21.9h-80.81c-6.52,0-12.49,3.7-15.52,9.6l-76.96,149.48h45.05c.12-1.21.4-2.4.88-3.55l56-109.16Z"/>
    <path class="cls-4" d="M558.99,566.93h80.81c2.32,0,4.4-.32,6.21-.9,8.31-2.67,11.12-11,6.47-20.76l-90.9-196.16c-6.31-13.25-20.56-13-27.18.09l-188.3,365.58c-6.03,11.93,3.85,25.96,16.98,25.96l85.6-.08c6.52,0,12.53-4.31,15.55-10.21l2.28-4.42,76.96-149.48c3.02-5.9,9-9.6,15.52-9.6Z"/>
    <path class="cls-1" d="M735.09,723.39l-50.79-109.81c-2.01-4.36-6.57-7.18-11.61-7.18h-92.77c-4.93,0-9.4,2.7-11.48,6.91l-56,109.16c-.48,1.15-.76,2.35-.88,3.55-.69,7.15,4.71,14.61,12.62,14.61h199.16c8.81-.71,14.28-9.2,11.75-17.24Z"/>
  </g>
</svg>