<?xml version="1.0" encoding="UTF-8"?>
<svg id="Capa_1" data-name="Capa 1" xmlns="http://www.w3.org/2000/svg" viewBox="0 0 1080 1080">
  <defs>
    <style>
      .cls-1 {
        fill: #3bb9ff;
      }

      .cls-1, .cls-2, .cls-3, .cls-4 {
        stroke-width: 0px;
      }

      .cls-2 {
        fill: #3c3c3c;
      }

      .cls-3 {
        fill: #000;
      }

      .cls-4 {
        fill: #fbfcf7;
      }
    </style>
  </defs>
  <rect class="cls-3" x="-6.47" y="-1.49" width="1092.95" height="1082.97"/>
  <g>
    <path class="cls-2" d="M585.76,657.89c3.33-6.77,10.54-11.11,18.46-11.11h136.38l-30.1-64.93c-2.92.94-6.26,1.45-9.99,1.45h-129.97c-10.48,0-20.09,5.95-24.96,15.44l-123.77,240.42h72.46c.19-1.94.64-3.87,1.42-5.72l90.07-175.56Z"/>
    <path class="cls-4" d="M570.54,583.3h129.97c3.73,0,7.07-.51,9.99-1.45,13.36-4.3,17.88-17.69,10.4-33.4l-146.19-315.49c-10.14-21.31-33.06-20.9-43.71.15L228.15,821.08c-9.7,19.18,6.2,41.76,27.32,41.76l137.68-.13c10.48,0,20.15-6.93,25.01-16.43l3.66-7.11,123.77-240.42c4.86-9.5,14.48-15.45,24.96-15.45Z"/>
    <path class="cls-1" d="M853.77,834.94l-81.68-176.61c-3.23-7.01-10.56-11.55-18.67-11.55h-149.21c-7.92,0-15.13,4.33-18.46,11.11l-90.07,175.56c-.77,1.85-1.23,3.78-1.42,5.72-1.11,11.5,7.57,23.5,20.3,23.5h320.31c14.16-1.14,22.97-14.8,18.9-27.73Z"/>
  </g>
</svg>