<?xml version="1.0" encoding="UTF-8"?>
<svg id="Capa_1" data-name="Capa 1" xmlns="http://www.w3.org/2000/svg" viewBox="0 0 1080 1080">
  <defs>
    <style>
      .cls-1 {
        fill: #000;
      }

      .cls-1, .cls-2 {
        stroke-width: 0px;
      }

      .cls-2 {
        fill: #606060;
      }
    </style>
  </defs>
  <path class="cls-2" d="M592.73,675.87c3.84-7.81,12.14-12.8,21.27-12.8h157.18l-34.69-74.83c-3.37,1.08-7.21,1.67-11.51,1.67h-149.79c-12.08,0-23.16,6.85-28.76,17.8l-142.65,277.08h83.51c.22-2.24.74-4.45,1.63-6.59l103.8-202.33Z"/>
  <path class="cls-1" d="M575.2,589.91h149.79c4.3,0,8.15-.59,11.51-1.67,15.4-4.95,20.6-20.38,11.99-38.49l-168.49-363.6c-11.69-24.56-38.1-24.09-50.38.17L180.59,863.95c-11.19,22.11,7.14,48.12,31.48,48.12l158.67-.15c12.08,0,23.22-7.99,28.83-18.93l4.22-8.2,142.65-277.08c5.6-10.94,16.68-17.8,28.76-17.8Z"/>
  <path class="cls-1" d="M901.62,879.93l-94.14-203.55c-3.72-8.08-12.17-13.31-21.52-13.31h-171.96c-9.13,0-17.43,5-21.27,12.8l-103.8,202.33c-.89,2.13-1.42,4.35-1.63,6.59-1.28,13.26,8.73,27.09,23.39,27.09h369.15c16.32-1.31,26.48-17.06,21.78-31.96Z"/>
</svg>